<svg xmlns="http://www.w3.org/2000/svg" xml:space="preserve" style="fill-rule:evenodd;clip-rule:evenodd;stroke-linejoin:round;stroke-miterlimit:2" viewBox="0 0 100 100">
  <path d="M.015 62.884V30.127c-.005-2.088.001-4.175.02-6.263.119-7.278.38-13.107 5.999-18.486 1.712-1.638 4.041-3.195 6.281-3.956C17.166-.225 23.818.05 28.957.047c3.032-.002 6.07-.047 9.101.009C46.729-.06 55.418.04 64.09.039l9.675.002c4.191.009 8.494-.082 12.59.945 2.754.69 5.623 2.431 7.652 4.412 5.276 5.151 5.869 10.302 5.941 17.321.028 3.983.035 7.966.02 11.95-.001 2.072.097 4.403-.019 6.442.122 1.922.011 3.907.013 5.837l.002 12.205.002 12.328c-.002 4.723.058 9.457-.801 14.121-.284 1.098-.581 2.187-1.043 3.227-1.528 3.439-4.411 6.542-7.649 8.441-2.413 1.415-5.023 2.101-7.789 2.372-5.428.482-10.913.338-16.358.338H43.147l-15.407-.003c-2.121.011-4.242-.018-6.362-.086-1.071-.034-2.204-.032-3.263-.196-1.807-.094-3.721-.411-5.438-.986-4.634-1.551-8.461-5.18-10.62-9.516-.469-.91-.772-1.895-1.076-2.869-1.02-4.478-.961-9.128-.964-13.699l-.002-9.741Zm8.318-9.759h12.5a3.126 3.126 0 0 0 3.032-2.367l4.414-17.656 6.125 44.408a3.126 3.126 0 0 0 5.924.904l14.455-30.717 9.384 12.511a3.123 3.123 0 0 0 5.1-.141l6.803-10.205 5.866 2.933c.434.217.912.33 1.397.33h8.334c1.724 0 3.125-1.4 3.125-3.125a3.127 3.127 0 0 0-3.125-3.125h-7.596l-7.673-3.837A3.125 3.125 0 0 0 72.4 44.1l-5.883 8.825-9.85-13.133a3.124 3.124 0 0 0-5.328.544L39.157 66.224 32.262 16.24a3.125 3.125 0 0 0-6.127-.331l-7.742 30.966H8.333A3.127 3.127 0 0 0 5.208 50a3.127 3.127 0 0 0 3.125 3.125Z" style="fill:#080605"/>
</svg>
