<svg xmlns="http://www.w3.org/2000/svg" xml:space="preserve" style="fill-rule:evenodd;clip-rule:evenodd;stroke-linejoin:round;stroke-miterlimit:2" viewBox="0 0 100 100">
  <path d="M.015 62.884V30.127c-.005-2.088.001-4.175.02-6.263.119-7.278.38-13.107 5.999-18.486 1.712-1.638 4.041-3.195 6.281-3.956C17.166-.225 23.818.05 28.957.047c3.032-.002 6.07-.047 9.101.009C46.729-.06 55.418.04 64.09.039l9.675.002c4.191.009 8.494-.082 12.59.945 2.754.69 5.623 2.431 7.652 4.412 5.276 5.151 5.869 10.302 5.941 17.321.028 3.983.035 7.966.02 11.95-.001 2.072.097 4.403-.019 6.442.122 1.922.011 3.907.013 5.837l.002 12.205.002 12.328c-.002 4.723.058 9.457-.801 14.121-.284 1.098-.581 2.187-1.043 3.227-1.528 3.439-4.411 6.542-7.649 8.441-2.413 1.415-5.023 2.101-7.789 2.372-5.428.482-10.913.338-16.358.338H43.147l-15.407-.003c-2.121.011-4.242-.018-6.362-.086-1.071-.034-2.204-.032-3.263-.196-1.807-.094-3.721-.411-5.438-.986-4.634-1.551-8.461-5.18-10.62-9.516-.469-.91-.772-1.895-1.076-2.869-1.02-4.478-.961-9.128-.964-13.699l-.002-9.741Zm47.453-42.845c-1.383.099-2.626.643-3.543 1.708-1.75 2.034-1.792 5.346-1.583 7.896.323 3.946 1.585 7.77 3.136 11.389-.528 1.82-1.244 3.628-1.916 5.401a119.912 119.912 0 0 1-4.976 11.52c-.499.984-.98 2.093-1.605 2.997-1.323.652-2.727 1.172-4.066 1.801-3.889 1.826-10.947 5.519-12.422 9.835-.413 1.211-.387 2.481.186 3.637.64 1.292 1.827 2.176 3.178 2.624 2.097.695 4.263.293 6.197-.685 4.561-2.309 8.363-7.634 11.027-11.846.747-1.182 1.421-2.524 2.201-3.657.311-.109.622-.223.936-.321a105.307 105.307 0 0 1 14.31-3.685c4.564 3.877 10.66 7.29 16.861 6.793 1.645-.132 3.415-.622 4.524-1.925.832-.977 1.196-2.267 1.081-3.538a5.087 5.087 0 0 0-1.887-3.549c-3.838-3.124-11.323-2.737-15.968-2.236-1.148.131-2.293.281-3.436.449-3.287-3.207-6.088-7.005-8.342-11 1.731-5.557 4.491-14.81 1.598-20.281-.767-1.451-1.957-2.59-3.551-3.064-.642-.19-1.273-.245-1.94-.263Zm2.32 28.271c.376.361 1.462 2.147 1.894 2.743a53.74 53.74 0 0 0 3.605 4.42 96.283 96.283 0 0 0-5.088 1.196c-1.493.341-2.971.811-4.44 1.242 1.519-3.152 2.722-6.365 4.029-9.601Zm16.598 8.668c1.187-.091 2.415-.064 3.605-.019 1.485.057 3.823.134 4.878 1.33.378.43.541.97.483 1.538a2.274 2.274 0 0 1-.904 1.595c-.945.723-2.158.744-3.282.574-3.404-.674-6.551-2.454-9.259-4.572 1.487-.212 2.98-.36 4.479-.446ZM47.373 23.12c.182.003.36.015.536.063.429.117.758.459.967.838 1.455 2.642-.696 10.448-1.518 13.267-.434-.385-1.308-3.987-1.471-4.741-.496-2.307-1.067-6.649.27-8.628.31-.46.677-.694 1.216-.799ZM35.202 65.097l.076.035c-.234.629-.91 1.469-1.295 2.036-1.662 2.442-5.676 8.045-8.676 8.547-.566.094-.984-.004-1.451-.329-.153-.169-.305-.335-.405-.543-.205-.428-.167-.906-.011-1.342 1.2-3.34 8.662-6.965 11.762-8.404Z" style="fill:#080605"/>
</svg>
