<svg xmlns="http://www.w3.org/2000/svg" xml:space="preserve" style="fill-rule:evenodd;clip-rule:evenodd;stroke-linejoin:round;stroke-miterlimit:2" viewBox="0 0 100 100">
  <path d="m39.127.036 7.191-.028 18.985.044 6.644.014c4.068.008 8.278.025 12.227 1.114a21.28 21.28 0 0 1 4.422 1.761 19.197 19.197 0 0 1 1.179.683 19.953 19.953 0 0 1 1.132.759 21.48 21.48 0 0 1 1.08.831A21.588 21.588 0 0 1 93.5 6.587c5.566 5.573 6.369 12.116 6.468 19.645.025 2.818.033 5.637.023 8.455l.001 26.915-.003 9.454c-.011 4.215.037 8.55-1.004 12.665a20.436 20.436 0 0 1-.872 2.706 18.88 18.88 0 0 1-.571 1.303 20.963 20.963 0 0 1-2.225 3.635 21.112 21.112 0 0 1-1.377 1.629 21.72 21.72 0 0 1-.496.51c-6.026 6.009-12.902 6.378-20.952 6.474-3.886.046-7.775.012-11.661.012H36.978l-8.494-.003c-4.023-.015-8.185-.003-12.109-1.001a22.071 22.071 0 0 1-1.336-.379 19.558 19.558 0 0 1-1.308-.466 22.258 22.258 0 0 1-1.274-.552 20.007 20.007 0 0 1-1.235-.635 20.886 20.886 0 0 1-2.881-1.932c-.181-.145-.36-.292-.536-.442a22.766 22.766 0 0 1-1.025-.936C.719 87.701.145 80.745.075 72.69L.008 40.818c-.027-4.008-.011-8.015.05-12.023.046-4.034-.003-8.162.93-12.111a21.174 21.174 0 0 1 2.424-6.022 21.687 21.687 0 0 1 1.65-2.378 22.352 22.352 0 0 1 .943-1.098c.164-.178.33-.353.5-.524C12.759.339 20.292.078 28.675.066l10.452-.03Zm1.697 13.606-8.1 14.015c-1.636 2.832-3.303 5.65-4.906 8.5l13.113.003c4.309 0 8.622.042 12.93-.003l-9.659-16.732-2.294-3.981c-.318-.551-.657-1.347-1.084-1.802Zm5.086 25.812c-1.192.23-1.991.795-2.658 1.794-.85 1.269-1.571 2.666-2.334 3.991-.559.97-1.518 2.359-1.85 3.399a4.112 4.112 0 0 0-.159.734 4.142 4.142 0 0 0 .048 1.247c.059.289.152.557.28.821.607 1.254 1.396 2.462 2.092 3.671.689 1.196 1.339 2.529 2.162 3.632.222.297.495.539.804.744.427.283.903.493 1.409.583 1.184.208 2.541.083 3.745.081 1.568-.001 3.164.056 4.728-.033 1.135-.247 2.024-.798 2.655-1.786.796-1.248 1.504-2.571 2.243-3.854.629-1.09 1.605-2.484 1.957-3.679a3.452 3.452 0 0 0 .046-1.796 4.161 4.161 0 0 0-.331-.918c-.521-1.055-1.196-2.06-1.778-3.084-.74-1.3-1.472-2.841-2.375-4.02a4.26 4.26 0 0 0-1.157-1.059 3.393 3.393 0 0 0-.579-.284 3.331 3.331 0 0 0-.624-.163c-1.218-.186-2.581-.055-3.816-.056-1.482 0-3.034-.107-4.508.035Zm-20.007.018L11.08 65.141l-2.449 4.22c-.371.641-1.036 1.551-1.219 2.244-.162.609-.075 1.387-.067 2.015.026 2.16.039 4.186.601 6.297.813 3.047 2.412 5.592 4.59 7.835 1.12-1.94 2.212-3.903 3.364-5.823l16.233-28.107 5.322-9.213c.984-1.704 2.002-3.397 2.945-5.125l-9.749-.006c-1.58 0-3.168.033-4.748-.006Zm18.55-32.128c-.564.978-1.119 1.962-1.696 2.933l13.889 24.047c2.344 4.058 4.734 8.095 7.028 12.181 2.39-4.117 4.696-8.298 7.154-12.373l13.9-24.08c-2.027-1.213-4.106-2.085-6.451-2.47-1.83-.301-3.683-.241-5.53-.239l-5.963.001H44.453Zm-8.119 45.848L22.863 76.499l-5.105 8.819c-.869 1.501-1.819 2.996-2.615 4.536 1.818 1.132 3.704 1.97 5.809 2.415 2.576.545 5.267.385 7.886.385l9.18-.002 21.16.001-17.849-30.896c-.549-.95-4.618-8.24-4.995-8.565Zm51.017-41.025-17.887 30.97-6.361 11.01c-1.155 1.999-2.348 3.984-3.461 6.007l5.376-.002 27.636-.001.001-25.099.003-7.052c.001-2.38.112-4.798-.406-7.138-.679-3.069-2.228-6.049-4.453-8.282-.141-.141-.281-.305-.448-.413ZM46.177 63.486c.999 1.82 2.073 3.606 3.113 5.403l5.344 9.253 5.703 9.874c.893 1.544 1.762 3.109 2.682 4.636l8.744.002c1.749 0 3.521.063 5.264-.09 4.091-.359 7.62-2.145 10.58-4.947 2.868-3.041 4.653-6.621 4.979-10.825.126-1.621.072-3.266.071-4.892v-8.424l-30.608-.003H51.818c-1.879.001-3.763-.032-5.641.013Z" style="fill:#4e3289"/>
</svg>
