<svg xmlns="http://www.w3.org/2000/svg" xml:space="preserve" style="fill-rule:evenodd;clip-rule:evenodd;stroke-linejoin:round;stroke-miterlimit:2" viewBox="0 0 100 100">
  <path d="m37.335.029 5.743-.024 21.73.038 7.256.016c3.962.01 8.054.033 11.908 1.056.223.058.445.12.666.186a20.95 20.95 0 0 1 8.826 5.238c6.304 6.291 6.521 13.818 6.534 22.202L100 60.577l-.002 9.84c-.001 4.273.089 8.711-.906 12.894-.919 3.867-2.802 7.362-5.62 10.179-5.82 5.819-12.466 6.378-20.291 6.486-3.509.025-7.018.032-10.528.02H37.28l-8.714-.002c-3.969-.013-8.074.004-11.952-.94a20.138 20.138 0 0 1-1.361-.371 19.457 19.457 0 0 1-1.334-.46 20.69 20.69 0 0 1-2.56-1.185 20.624 20.624 0 0 1-2.379-1.516 19.348 19.348 0 0 1-1.108-.874c-.18-.152-.357-.307-.531-.465a18.044 18.044 0 0 1-.516-.482C.891 87.913.176 81.217.074 73.334c-.043-3.312-.013-6.627-.025-9.94L.002 41.458c-.029-4.183-.013-8.365.049-12.547.048-4.075-.013-8.24.929-12.229a20.807 20.807 0 0 1 .836-2.742 20.131 20.131 0 0 1 1.201-2.604 21.26 21.26 0 0 1 1.981-2.985 21.975 21.975 0 0 1 .931-1.092c.161-.176.325-.35.492-.521C12.426.597 19.661.083 27.8.059l9.535-.03Zm6.249 40.599c-1.711 2.862-3.348 5.774-5.015 8.662-.776 1.345-2.266 3.607-2.721 5.012-.253.781-.254 1.622-.052 2.416a4.145 4.145 0 0 0 .133.433 4.864 4.864 0 0 0 .279.62 5.507 5.507 0 0 0 .236.386c.043.063.087.124.132.185a4.918 4.918 0 0 0 .615.664 4.041 4.041 0 0 0 .353.284 5.537 5.537 0 0 0 .38.246c.483.28 1.007.457 1.557.546.899.146 1.871.079 2.781.079l4.675-.005 7.958.002-8.625-14.952c-.436-.754-2.368-4.293-2.686-4.578Zm19.207-33.29L51.318 27.215l-3.827 6.629c-.655 1.135-1.352 2.261-1.966 3.418 4.402 7.63 8.732 15.315 13.222 22.894l16.71-.002c5.732 0 11.471-.065 17.202.003l.003-25.17v-6.993c.001-2.381.107-4.787-.409-7.129-.043-.2-.09-.398-.141-.596a15.736 15.736 0 0 0-.345-1.176 18.815 18.815 0 0 0-.429-1.149 17.364 17.364 0 0 0-1.098-2.189 17.43 17.43 0 0 0-1.023-1.528 19.546 19.546 0 0 0-.771-.953 17.709 17.709 0 0 0-1.922-1.894l-.284-.235a20.71 20.71 0 0 0-.584-.45 20.552 20.552 0 0 0-.603-.425 14.847 14.847 0 0 0-.62-.399 20.361 20.361 0 0 0-.638-.372 16.678 16.678 0 0 0-1.657-.805 16.346 16.346 0 0 0-.686-.271 14.344 14.344 0 0 0-.697-.242 15.794 15.794 0 0 0-.707-.211 14.32 14.32 0 0 0-.715-.18 15.453 15.453 0 0 0-1.086-.213 21.239 21.239 0 0 0-.73-.102 14.7 14.7 0 0 0-.367-.039c-1.895-.18-3.831-.101-5.734-.101l-8.625.003Zm-18.349.001L17.154 54.604l-7.062 12.232c-.485.84-.958 1.69-1.45 2.526-.401.683-.956 1.419-1.21 2.164-.263.775-.076 4.96.039 5.934a17.038 17.038 0 0 0 2.273 6.744 21.538 21.538 0 0 0 .447.715 16.41 16.41 0 0 0 .995 1.36 14.087 14.087 0 0 0 .547.642c.093.105.188.209.285.311a13.963 13.963 0 0 0 .592.6 16.585 16.585 0 0 0 2.64 2.091 16.428 16.428 0 0 0 2.004 1.106 17.5 17.5 0 0 0 2.713 1c.466.129.936.238 1.41.327 2.533.463 5.185.303 7.75.303h10.589l5.774.001-11.758-20.376-4.098-7.101c-.675-1.168-1.315-2.391-2.048-3.522L58.95 7.342l-14.508-.003ZM32.515 63.488c.588 1.116 1.25 2.201 1.881 3.292l3.292 5.697 11.649 20.182 17.478-.001 5.523.002c2.462.001 4.884.071 7.295-.529 3.057-.76 5.734-2.325 7.987-4.517 2.837-2.994 4.624-6.557 4.962-10.71.141-1.721.08-3.466.08-5.192v-8.229l-39.597-.003H39.441c-2.302 0-4.627-.068-6.926.008Z"/>
</svg>
