<svg xmlns="http://www.w3.org/2000/svg" xml:space="preserve" style="fill-rule:evenodd;clip-rule:evenodd;stroke-linejoin:round;stroke-miterlimit:2" viewBox="0 0 100 100">
  <path d="M36.717.033C38.51-.005 40.308.014 42.101.01l22.966.032 6.956.019c3.995.014 8.112.035 11.996 1.076a21.712 21.712 0 0 1 1.32.394 21.751 21.751 0 0 1 1.924.752 20.76 20.76 0 0 1 1.237.605 22.012 22.012 0 0 1 1.195.685 21.952 21.952 0 0 1 1.702 1.171 22.417 22.417 0 0 1 1.578 1.333c.168.157.333.316.496.478 5.996 5.989 6.505 13.174 6.52 21.214l.003 31.913v10.451c-.001 4.38.102 8.926-.918 13.213a21.851 21.851 0 0 1-.605 2.12 21.089 21.089 0 0 1-2.248 4.614 21.005 21.005 0 0 1-2.773 3.42c-5.675 5.679-12.206 6.347-19.844 6.474-3.427.057-6.86.019-10.287.018l-25.822.001-8.465-.001c-4.112-.004-8.394.044-12.413-.941a21.383 21.383 0 0 1-4.044-1.402A21.138 21.138 0 0 1 6.729 93.6C.137 87.068.069 79.303.067 70.588l-.046-11.48L.006 37.51c-.024-3.289-.002-6.577.068-9.865.059-3.876.057-7.809 1.069-11.582a22.197 22.197 0 0 1 .389-1.309 23.352 23.352 0 0 1 .475-1.281c.086-.211.176-.42.268-.628a23.2 23.2 0 0 1 .598-1.228 19.314 19.314 0 0 1 .677-1.187 21.568 21.568 0 0 1 .753-1.139 19.929 19.929 0 0 1 1.72-2.12c.155-.167.313-.332.473-.494C12.161.962 18.536.227 26.225.079 29.719.012 33.221.048 36.717.033Zm2.092 17.306c-2.355 4.045-4.648 8.13-7.032 12.158l36.057 63.155h6.892c2.443.001 4.644-.322 6.968-1.114L50.765 37.97l-8.596-14.888-2.234-3.869c-.345-.598-.68-1.35-1.126-1.874Zm5.762-9.998-3.822 6.627 26.569 46.01 11.565 20.021c1.931 3.345 3.793 6.76 5.808 10.052.77-.544 1.54-1.071 2.24-1.706 3.094-2.605 4.694-6 5.586-9.864L65.168 31.126l-9.067-15.701c-1.555-2.694-3.084-5.408-4.67-8.083l-6.86-.001Zm10.692.002 26.741 46.28 7.453 12.901 2.199 3.814c.354.614.685 1.319 1.115 1.876l.005-34.139v-9.216c.003-2.592.163-5.272-.368-7.823a18.2 18.2 0 0 0-.296-1.204 15.593 15.593 0 0 0-.382-1.18 17.676 17.676 0 0 0-.466-1.149 17.968 17.968 0 0 0-.548-1.112 17.803 17.803 0 0 0-1.331-2.091 16.4 16.4 0 0 0-1.188-1.431c-.141-.151-.284-.3-.43-.447-2.067-2.077-4.733-3.684-7.571-4.447-2.447-.658-4.834-.635-7.339-.635h-4.756l-12.838.003ZM29.636 33.231a666.411 666.411 0 0 0-3.39 5.842c-.832 1.44-2.016 3.149-2.486 4.717a6.716 6.716 0 0 0-.289 1.805 6.354 6.354 0 0 0 .039.916 6.858 6.858 0 0 0 .161.901c.348 1.385 1.164 2.588 1.878 3.804.472.805.926 1.622 1.393 2.43l4.474 7.736 18.062 31.271h8.38l6.121.001c-2.921-5.201-5.961-10.343-8.945-15.509L38.566 48.631l-6.493-11.25-1.628-2.819c-.24-.416-.49-.98-.809-1.331ZM20.44 49.127l-9.9 17.16c-.573.995-2.833 4.59-3.03 5.404-.132.543-.058 1.231-.055 1.789.011 2.193.039 4.335.614 6.467a18.994 18.994 0 0 0 .525 1.613 16.9 16.9 0 0 0 .682 1.554 19.175 19.175 0 0 0 .397.75 19.383 19.383 0 0 0 .664 1.085 21.631 21.631 0 0 0 .487.696 16.652 16.652 0 0 0 .792.996 21.2 21.2 0 0 0 .568.63 16.983 16.983 0 0 0 1.881 1.713 17.6 17.6 0 0 0 1.385.98 16.63 16.63 0 0 0 .727.438c3.746 2.14 6.912 2.257 11.081 2.253l5.42-.002h12.949L26.685 59.842c-.546-.945-5.946-10.481-6.245-10.715Z" style="fill:#8a1c26"/>
</svg>
