<svg xmlns="http://www.w3.org/2000/svg" xml:space="preserve" style="fill-rule:evenodd;clip-rule:evenodd;stroke-linejoin:round;stroke-miterlimit:2" viewBox="0 0 100 100">
  <path d="M.015 62.884V30.127c-.005-2.088.001-4.175.02-6.263.119-7.278.38-13.107 5.999-18.486 1.712-1.638 4.041-3.195 6.281-3.956C17.166-.225 23.818.05 28.957.047c3.032-.002 6.07-.047 9.101.009C46.729-.06 55.418.04 64.09.039l9.675.002c4.191.009 8.494-.082 12.59.945 2.754.69 5.623 2.431 7.652 4.412 5.276 5.151 5.869 10.302 5.941 17.321.028 3.983.035 7.966.02 11.95-.001 2.072.097 4.403-.019 6.442.122 1.922.011 3.907.013 5.837l.002 12.205.002 12.328c-.002 4.723.058 9.457-.801 14.121-.284 1.098-.581 2.187-1.043 3.227-1.528 3.439-4.411 6.542-7.649 8.441-2.413 1.415-5.023 2.101-7.789 2.372-5.428.482-10.913.338-16.358.338H43.147l-15.407-.003c-2.121.011-4.242-.018-6.362-.086-1.071-.034-2.204-.032-3.263-.196-1.807-.094-3.721-.411-5.438-.986-4.634-1.551-8.461-5.18-10.62-9.516-.469-.91-.772-1.895-1.076-2.869-1.02-4.478-.961-9.128-.964-13.699l-.002-9.741Zm49.368-45.659c-.632.078-1.198.18-1.775.463-1.637.802-3.236 1.835-4.807 2.765l-6.47 3.751-9.753 5.644c-1.765 1.019-3.595 1.974-5.303 3.082a3.808 3.808 0 0 0-.943.865c-.605.765-1.146 1.753-1.307 2.725-.216 1.305-.076 3.501-.076 4.91v9.791l.004 9.45c-.001 1.568-.139 3.395.055 4.923.157 1.237.991 2.752 1.979 3.52.468.364 1.051.656 1.563.959 1.209.711 2.425 1.411 3.647 2.098l10.465 6.053 8.053 4.683c1.071.611 2.168 1.367 3.305 1.83.896.366 2.122.4 3.067.257 1.27-.191 6.196-3.279 7.567-4.078l11.977-6.917c1.738-.993 3.443-2.124 5.239-3.007-1.525-1.011-3.158-1.893-4.746-2.802l-5.388-3.112-7.962-4.619c-1.499-.867-3.07-1.673-4.518-2.62-.819.429-2.656 1.84-3.557 1.579-.728-.212-5.7-3.033-5.986-3.559-.134-.246-.165-.725-.181-1.01-.069-1.219-.008-2.473-.008-3.697.001-1.245-.058-2.519.016-3.76.017-.285.054-.753.188-1.003.134-.248.407-.456.636-.614.831-.575 1.796-1.031 2.676-1.534.641-.367 1.253-.8 1.908-1.137.211-.109.428-.201.66-.252a1.887 1.887 0 0 1 1.064.091c.894.324 1.733.989 2.558 1.465.785.454 1.667.855 2.413 1.366.452.31.688.709.769 1.251.14.933.033 1.999.03 2.95 2.709 1.678 5.525 3.221 8.29 4.806l11.946 6.934c1.445.845 2.931 1.632 4.351 2.516.075-6.308.016-12.623.015-18.931v-5.411c.001-1.101.093-2.293-.094-3.379-.191-1.104-.785-2.226-1.576-3.022-.716-.719-1.745-1.215-2.618-1.721l-3.654-2.09-9.692-5.621-6.674-3.872c-1.416-.834-3.171-1.956-4.638-2.629-.62-.285-1.393-.35-2.07-.346-.211.001-.434-.005-.645.016Z" style="fill:#080605"/>
</svg>
