<svg xmlns="http://www.w3.org/2000/svg" xml:space="preserve" style="fill-rule:evenodd;clip-rule:evenodd;stroke-linejoin:round;stroke-miterlimit:2" viewBox="0 0 100 100">
  <path d="M10.692.047C12.679-.035 14.69.026 16.68.026h10.875L60.749.025l19.7.001L86.26.022c1.233 0 2.5-.06 3.725.092a11.402 11.402 0 0 1 1.216.211 11.075 11.075 0 0 1 1.571.486 12.691 12.691 0 0 1 .755.328 11.471 11.471 0 0 1 1.429.816 13.504 13.504 0 0 1 .666.484 13.376 13.376 0 0 1 .531.444 9.37 9.37 0 0 1 .61.583 9.298 9.298 0 0 1 .382.413 12.121 12.121 0 0 1 .36.431c.059.074.116.148.172.223a8.754 8.754 0 0 1 .328.457c.053.078.104.156.155.235.051.078.1.158.149.238a11.802 11.802 0 0 1 .412.736 14.652 14.652 0 0 1 .243.507 14.374 14.374 0 0 1 .218.519 11.836 11.836 0 0 1 .357 1.066 13.56 13.56 0 0 1 .138.545 12.178 12.178 0 0 1 .156.829c.014.092.027.185.038.278a8.557 8.557 0 0 1 .056.56c.135 1.65.042 3.371.04 5.028l-.002 9.152.002 29.451v31.462c0 1.412.085 2.892-.075 4.295a9.767 9.767 0 0 1-.054.414 13.45 13.45 0 0 1-.153.82 11.441 11.441 0 0 1-.818 2.363c-.06.126-.122.25-.187.373a9.996 9.996 0 0 1-.414.726 11.601 11.601 0 0 1-.718 1.025c-.086.11-.174.217-.264.324-2.063 2.421-4.846 3.743-7.996 3.998l-.051.006c-1.575.121-3.225.021-4.809.02l-9.432-.003-29.69.001-23.728.001-7.191.002c-1.451-.001-2.952.076-4.394-.092a10.07 10.07 0 0 1-.788-.123 10.435 10.435 0 0 1-1.161-.288 12.028 12.028 0 0 1-.754-.26 10.992 10.992 0 0 1-1.789-.879 11.907 11.907 0 0 1-.988-.674c-.105-.081-.21-.163-.312-.248a12.167 12.167 0 0 1-.217-.18l-.211-.186a9.401 9.401 0 0 1-.207-.192 9.386 9.386 0 0 1-.203-.196l-.197-.202a9.352 9.352 0 0 1-.192-.206c-.063-.069-.125-.14-.187-.211a9.396 9.396 0 0 1-.357-.436 12.052 12.052 0 0 1-.336-.453 9.544 9.544 0 0 1-.312-.469 15.481 15.481 0 0 1-.289-.484 11.893 11.893 0 0 1-.264-.499l-.122-.253a9.692 9.692 0 0 1-.116-.257c-.038-.086-.074-.173-.11-.26-.035-.087-.07-.174-.103-.262-.033-.088-.066-.176-.097-.265a13.963 13.963 0 0 1-.173-.537c-.026-.09-.052-.18-.076-.271a9.111 9.111 0 0 1-.133-.548c-.02-.092-.038-.184-.056-.276a12.394 12.394 0 0 1-.091-.556c-.013-.094-.024-.187-.035-.28-.01-.093-.02-.187-.028-.281-.155-1.71-.061-3.49-.059-5.207l.003-9.134-.002-29.384L.03 21.604V14.33c0-1.399-.083-2.863.08-4.252.015-.136.033-.272.054-.408a11.068 11.068 0 0 1 .631-2.386 10.474 10.474 0 0 1 .324-.757 10.511 10.511 0 0 1 .378-.732 11.385 11.385 0 0 1 1.17-1.693C4.723 1.656 7.527.309 10.692.047Zm29.46 27.533c-1.707 1.649-3.368 3.353-5.046 5.031l-9.162 9.164-5.457 5.457c-.909.908-1.907 1.798-2.749 2.766l16.524 16.527 4.152 4.162c.464.465 1.232 1.373 1.739 1.7 1.511-1.396 2.939-2.912 4.394-4.367l8.21-8.212 6.497-6.497c1.098-1.097 2.28-2.165 3.306-3.325-1.757-1.844-3.6-3.614-5.401-5.414L47.146 34.56l-4.851-4.852c-.616-.617-1.479-1.634-2.143-2.128Zm19.196-.001-3.146 3.134c-.594.595-1.244 1.179-1.79 1.817l11.366 11.361c2.03 2.03 4.031 4.107 6.108 6.087L60 61.87l-3.568 3.568c-.674.673-1.378 1.333-2.017 2.038.702.704 4.543 4.692 4.938 4.906 1.475-1.327 2.85-2.817 4.255-4.223l8.035-8.038 6.712-6.71c1.127-1.126 2.366-2.234 3.41-3.433L66.023 34.24l-4.631-4.636c-.647-.647-1.323-1.469-2.044-2.025Z" style="fill:#fe4239"/>
</svg>
