<svg xmlns="http://www.w3.org/2000/svg" xml:space="preserve" style="fill-rule:evenodd;clip-rule:evenodd;stroke-linejoin:round;stroke-miterlimit:2" viewBox="0 0 100 100">
  <path d="M.015 62.884V30.127c-.005-2.088.001-4.175.02-6.263.119-7.278.38-13.107 5.999-18.486 1.712-1.638 4.041-3.195 6.281-3.956C17.166-.225 23.818.05 28.957.047c3.032-.002 6.07-.047 9.101.009C46.729-.06 55.418.04 64.09.039l9.675.002c4.191.009 8.494-.082 12.59.945 2.754.69 5.623 2.431 7.652 4.412 5.276 5.151 5.869 10.302 5.941 17.321.028 3.983.035 7.966.02 11.95-.001 2.072.097 4.403-.019 6.442.122 1.922.011 3.907.013 5.837l.002 12.205.002 12.328c-.002 4.723.058 9.457-.801 14.121-.284 1.098-.581 2.187-1.043 3.227-1.528 3.439-4.411 6.542-7.649 8.441-2.413 1.415-5.023 2.101-7.789 2.372-5.428.482-10.913.338-16.358.338H43.147l-15.407-.003c-2.121.011-4.242-.018-6.362-.086-1.071-.034-2.204-.032-3.263-.196-1.807-.094-3.721-.411-5.438-.986-4.634-1.551-8.461-5.18-10.62-9.516-.469-.91-.772-1.895-1.076-2.869-1.02-4.478-.961-9.128-.964-13.699l-.002-9.741Zm23.823-2.12-3.526 7.412c-1.795 3.77-.446 8.411 3.249 10.376 3.919 2.081 8.74.457 10.631-3.505l3.217-6.763c3.406 1.092 6.938 1.698 10.418 1.698 3.866 0 7.678-.67 11.31-1.891l-6.712-14.145a19.703 19.703 0 0 1-4.587.552 17.72 17.72 0 0 1-3.675-.402l3.377-7.095a.884.884 0 0 1 1.594 0l3.302 6.944-.011.001 6.723 14.145.01-.001 3.303 6.947a7.743 7.743 0 0 0 6.998 4.417c.691 0 1.381-.095 2.061-.286 4.662-1.285 6.871-6.648 4.789-11.024l-3.709-7.8c6.495-5.639 11.292-13.314 13.012-21.903.839-4.205-1.88-8.283-6.064-9.111-.5-.1-1.01-.151-1.52-.151a7.764 7.764 0 0 0-7.591 6.225c-.744 3.716-2.484 7.176-4.882 10.117L55.314 23.977a7.753 7.753 0 0 0-6.988-4.417 7.742 7.742 0 0 0-6.987 4.418L30.9 45.939c2.929 3.873 8.106 7.059 13.253 8.155-5.151-1.093-10.333-4.279-13.264-8.155-.733-.966-1.327-1.975-1.742-3.006-1.603-3.961-6.117-5.872-10.078-4.279-3.961 1.603-5.872 6.117-4.279 10.078 1.815 4.502 5.023 8.633 9.048 12.032Z" style="fill:#080605"/>
</svg>
