<svg xmlns="http://www.w3.org/2000/svg" xml:space="preserve" style="fill-rule:evenodd;clip-rule:evenodd;stroke-linejoin:round;stroke-miterlimit:2" viewBox="0 0 100 100">
  <path d="M.015 62.884V30.127c-.005-2.088.001-4.175.02-6.263.119-7.278.38-13.107 5.999-18.486 1.712-1.638 4.041-3.195 6.281-3.956C17.166-.225 23.818.05 28.957.047c3.032-.002 6.07-.047 9.101.009C46.729-.06 55.418.04 64.09.039l9.675.002c4.191.009 8.494-.082 12.59.945 2.754.69 5.623 2.431 7.652 4.412 5.276 5.151 5.869 10.302 5.941 17.321.028 3.983.035 7.966.02 11.95-.001 2.072.097 4.403-.019 6.442.122 1.922.011 3.907.013 5.837l.002 12.205.002 12.328c-.002 4.723.058 9.457-.801 14.121-.284 1.098-.581 2.187-1.043 3.227-1.528 3.439-4.411 6.542-7.649 8.441-2.413 1.415-5.023 2.101-7.789 2.372-5.428.482-10.913.338-16.358.338H43.147l-15.407-.003c-2.121.011-4.242-.018-6.362-.086-1.071-.034-2.204-.032-3.263-.196-1.807-.094-3.721-.411-5.438-.986-4.634-1.551-8.461-5.18-10.62-9.516-.469-.91-.772-1.895-1.076-2.869-1.02-4.478-.961-9.128-.964-13.699l-.002-9.741Zm48.64-46.967-.327-.004-.319.003a11.365 11.365 0 0 0-9.974 6.536l-7.529 15.837-.059-.067c-3.114-3.471-8.178-4.799-12.747-2.95-5.824 2.358-8.639 8.993-6.295 14.821l.033.086.227.534c1.703 3.903 4.27 7.534 7.508 10.729l.207.2-2.362 4.967c-2.639 5.559-.577 12.289 4.831 15.164a11.392 11.392 0 0 0 8.919.765l.339-.118a11.393 11.393 0 0 0 6.379-5.806l1.902-4 .524.122c2.655.589 5.312.893 7.926.893l.741-.007a38.556 38.556 0 0 0 8.108-1.037l.499-.124 1.981 4.163a11.413 11.413 0 0 0 10.292 6.499 11.296 11.296 0 0 0 3.048-.422l.224-.068.292-.091c6.483-2.124 9.568-9.692 6.591-15.953l-2.566-5.394.193-.187c6.078-6.035 10.315-13.653 11.958-21.861.148-.736.222-1.485.222-2.236 0-5.41-3.854-10.109-9.159-11.169-6.177-1.22-12.169 2.77-13.403 8.936l-.102.477a18.063 18.063 0 0 1-.713 2.353l-.117.297-7.318-15.394a11.394 11.394 0 0 0-9.954-6.494Zm3.77 38.029.011-.001-3.302-6.944a.884.884 0 0 0-1.594 0l-3.377 7.095a17.72 17.72 0 0 0 3.675.402c1.54 0 3.08-.191 4.587-.552l6.712 14.145c-3.632 1.221-7.444 1.891-11.31 1.891-3.48 0-7.012-.606-10.418-1.698l-3.217 6.763c-1.891 3.962-6.712 5.586-10.631 3.505-3.695-1.965-5.044-6.606-3.249-10.376l3.526-7.412c-4.025-3.399-7.233-7.53-9.048-12.032-1.593-3.961.318-8.475 4.279-10.078 3.961-1.593 8.475.318 10.078 4.279.415 1.031 1.009 2.04 1.742 3.006 2.931 3.876 8.113 7.062 13.264 8.155-5.147-1.096-10.324-4.282-13.253-8.155l10.439-21.961a7.742 7.742 0 0 1 6.987-4.418 7.753 7.753 0 0 1 6.988 4.417l10.241 21.544c2.398-2.941 4.138-6.401 4.882-10.117a7.764 7.764 0 0 1 7.591-6.225c.51 0 1.02.051 1.52.151 4.184.828 6.903 4.906 6.064 9.111-1.72 8.589-6.517 16.264-13.012 21.903l3.709 7.8c2.082 4.376-.127 9.739-4.789 11.024-.68.191-1.37.286-2.061.286a7.743 7.743 0 0 1-6.998-4.417l-3.303-6.947-.01.001-6.723-14.145Z" style="fill:#080605"/>
</svg>
