<?xml version="1.0" encoding="UTF-8" standalone="no"?>
<!DOCTYPE svg PUBLIC "-//W3C//DTD SVG 1.1//EN" "http://www.w3.org/Graphics/SVG/1.1/DTD/svg11.dtd">
<svg width="100%" height="100%" viewBox="0 0 100 100" version="1.1" xmlns="http://www.w3.org/2000/svg" xmlns:xlink="http://www.w3.org/1999/xlink" xml:space="preserve" xmlns:serif="http://www.serif.com/" style="fill-rule:evenodd;clip-rule:evenodd;stroke-linejoin:round;stroke-miterlimit:2;">
    <g transform="matrix(0.0976561,0,0,0.0976737,6.63716e-05,-0.017972)">
        <path d="M383.314,0.328L413.983,0.184L661.668,0.451L737.843,0.635C778.271,0.758 819.958,0.963 859.32,11.315C861.608,11.906 863.885,12.538 866.15,13.21C868.413,13.875 870.676,14.572 872.919,15.319C875.162,16.056 877.394,16.835 879.606,17.644C881.828,18.463 884.029,19.313 886.221,20.194C888.41,21.083 890.585,22.008 892.744,22.968C894.904,23.931 897.044,24.924 899.174,25.948C901.304,26.982 903.414,28.048 905.503,29.143C907.594,30.24 909.666,31.374 911.718,32.543C915.827,34.879 919.858,37.351 923.802,39.956C925.775,41.257 927.727,42.588 929.659,43.95C931.585,45.316 933.49,46.712 935.373,48.138C937.254,49.567 939.111,51.029 940.943,52.521C942.78,54.007 944.59,55.526 946.371,57.078C948.157,58.622 949.915,60.199 951.644,61.808C953.38,63.415 955.087,65.054 956.764,66.724C1018.33,127.846 1023.63,200.94 1023.93,283.208L1023.99,613.068L1023.98,719.34C1023.97,763.525 1024.93,809.277 1014.84,852.562C1014.28,855.016 1013.68,857.461 1013.03,859.894C1012.4,862.33 1011.71,864.754 1010.99,867.164C1010.26,869.578 1009.49,871.978 1008.67,874.363C1007.86,876.746 1007.01,879.115 1006.12,881.469C1005.22,883.822 1004.29,886.161 1003.32,888.484C1002.34,890.806 1001.32,893.111 1000.26,895.396C999.21,897.686 998.114,899.956 996.977,902.206C995.839,904.45 994.665,906.676 993.454,908.882C992.239,911.088 990.987,913.273 989.696,915.436C988.408,917.6 987.08,919.741 985.713,921.856C984.343,923.97 982.94,926.063 981.504,928.133C980.062,930.198 978.587,932.239 977.08,934.257C975.566,936.271 974.019,938.262 972.442,940.227C970.858,942.184 969.243,944.116 967.598,946.022C965.951,947.927 964.268,949.802 962.55,951.644C960.842,953.495 959.098,955.311 957.317,957.092C898.13,1016.53 830.044,1022.5 750.326,1023.69C713.892,1024.24 677.417,1023.9 640.983,1023.89L380.436,1023.9L295.588,1023.88C253.829,1023.81 210.35,1024.11 169.564,1014.08C167.237,1013.52 164.919,1012.92 162.611,1012.28C160.298,1011.65 157.997,1010.98 155.709,1010.26C153.419,1009.55 151.142,1008.8 148.879,1008C146.615,1007.22 144.366,1006.39 142.131,1005.53C139.896,1004.67 137.677,1003.76 135.475,1002.82C133.271,1001.89 131.083,1000.91 128.911,999.905C126.737,998.892 124.58,997.845 122.44,996.762C120.305,995.676 118.188,994.556 116.09,993.402C113.984,992.256 111.902,991.068 109.844,989.839C107.783,988.616 105.742,987.36 103.721,986.071C101.702,984.781 99.705,983.457 97.731,982.098C95.758,980.742 93.809,979.353 91.884,977.93C89.957,976.505 88.052,975.051 86.17,973.568C84.289,972.083 82.436,970.563 80.61,969.011C78.779,967.467 76.977,965.89 75.203,964.281C73.422,962.674 71.671,961.035 69.949,959.365C8.663,899.37 1.63,829.747 0.85,748.145L0.134,419.738C-0.154,377.999 0.02,336.27 0.655,294.533C1.137,253.061 0.645,210.719 10.332,170.138C10.89,167.755 11.491,165.382 12.134,163.021C12.769,160.655 13.455,158.301 14.172,155.965C14.896,153.625 15.658,151.297 16.456,148.982C17.256,146.667 18.096,144.366 18.975,142.08C19.855,139.796 20.777,137.533 21.729,135.27C22.69,133.019 23.687,130.783 24.719,128.563C25.754,126.351 26.819,124.15 27.924,121.958C29.037,119.776 30.184,117.612 31.365,115.466C32.543,113.326 33.761,111.206 35.021,109.097C36.271,106.997 37.561,104.919 38.891,102.861C40.213,100.8 41.575,98.765 42.977,96.758C44.368,94.742 45.795,92.752 47.257,90.788C48.723,88.828 50.222,86.892 51.753,84.982C53.28,83.07 54.84,81.186 56.433,79.329C58.028,77.467 59.657,75.634 61.317,73.83C62.969,72.026 64.656,70.255 66.376,68.516C127.98,5.929 201.86,0.91 285.07,0.646L383.313,0.328L383.314,0.328ZM354.079,771.492C355.955,768.146 357.571,764.661 358.912,761.068C384.112,706.519 420.198,631.91 561.388,571.054C716.39,504.248 787.016,358.236 803.635,317.604C807.449,308.498 809.409,298.722 809.4,288.85C809.4,247.747 776.028,214.374 734.925,214.374C705.802,214.374 680.561,231.127 668.314,255.519C667.494,257.159 666.735,258.829 666.04,260.526C637.092,323.266 589.834,398.172 475.853,446.075C349.113,499.343 262.636,601.754 222.188,702.392C220.215,706.402 218.611,710.584 217.395,714.885C215.539,721.48 214.599,728.299 214.6,735.15C214.6,776.253 247.972,809.626 289.075,809.626C316.979,809.626 341.33,794.235 354.079,771.492ZM289.167,351.498L465.377,351.498C477.717,351.498 511.334,328.018 539.873,296.274C550.687,284.242 560.415,272.015 568.33,260.915C573.215,254.055 577.413,247.613 580.741,241.92C586.24,232.51 589.373,225.106 589.373,221.112C589.373,221.112 589.373,220.625 589.373,220.622C589.373,210.707 581.214,202.548 571.299,202.547L289.168,202.547C248.065,202.547 214.693,235.919 214.693,277.023C214.693,318.126 248.065,351.498 289.168,351.498L289.167,351.498ZM734.925,660.675L558.715,660.675C546.375,660.675 512.748,684.155 484.209,715.899C473.395,727.931 463.667,740.157 455.762,751.258C450.867,758.118 446.679,764.559 443.341,770.263C437.841,779.673 434.708,787.067 434.708,791.06C434.708,791.06 434.708,791.545 434.708,791.546C434.708,801.464 442.87,809.626 452.788,809.626C452.789,809.626 452.791,809.626 452.792,809.626L734.925,809.626C776.028,809.626 809.4,776.253 809.4,735.15C809.4,694.047 776.028,660.675 734.925,660.675Z"/>
    </g>
</svg>
