<?xml version="1.0" encoding="UTF-8" standalone="no"?><!DOCTYPE svg PUBLIC "-//W3C//DTD SVG 1.1//EN" "http://www.w3.org/Graphics/SVG/1.1/DTD/svg11.dtd"><svg width="100%" height="100%" viewBox="0 0 100 100" version="1.1" xmlns="http://www.w3.org/2000/svg" xmlns:xlink="http://www.w3.org/1999/xlink" xml:space="preserve" xmlns:serif="http://www.serif.com/" style="fill-rule:evenodd;clip-rule:evenodd;stroke-linejoin:round;stroke-miterlimit:2;"><path d="M37.433,0.032l2.995,-0.014l24.188,0.026l7.439,0.018c3.948,0.012 8.019,0.032 11.863,1.043c0.223,0.058 0.446,0.119 0.667,0.185c0.221,0.065 0.442,0.133 0.661,0.206c0.219,0.072 0.437,0.148 0.653,0.227c0.217,0.08 0.432,0.163 0.646,0.249c0.214,0.087 0.426,0.177 0.637,0.271c0.211,0.094 0.42,0.191 0.628,0.291c0.208,0.101 0.414,0.205 0.618,0.312c0.204,0.107 0.407,0.218 0.607,0.332c0.201,0.114 0.4,0.232 0.596,0.352c0.197,0.121 0.392,0.245 0.584,0.372c0.193,0.127 0.383,0.257 0.572,0.39c0.188,0.133 0.374,0.27 0.558,0.409c0.184,0.14 0.365,0.282 0.544,0.428c0.18,0.145 0.356,0.294 0.53,0.445c0.175,0.151 0.346,0.305 0.515,0.462c0.17,0.157 0.336,0.317 0.5,0.48c6.012,5.969 6.53,13.107 6.559,21.141l0.006,32.213l-0.001,10.378c-0.001,4.315 0.093,8.783 -0.893,13.01c-0.055,0.24 -0.113,0.479 -0.176,0.716c-0.062,0.238 -0.129,0.475 -0.2,0.71c-0.071,0.236 -0.146,0.47 -0.226,0.703c-0.079,0.233 -0.162,0.464 -0.249,0.694c-0.088,0.23 -0.179,0.459 -0.274,0.685c-0.095,0.227 -0.195,0.452 -0.298,0.675c-0.103,0.224 -0.21,0.445 -0.321,0.665c-0.111,0.219 -0.226,0.437 -0.344,0.652c-0.119,0.216 -0.241,0.429 -0.367,0.64c-0.126,0.212 -0.256,0.421 -0.389,0.627c-0.134,0.207 -0.271,0.411 -0.411,0.613c-0.141,0.202 -0.285,0.401 -0.432,0.598c-0.148,0.197 -0.299,0.391 -0.453,0.583c-0.155,0.191 -0.312,0.38 -0.473,0.566c-0.161,0.186 -0.325,0.369 -0.493,0.549c-0.167,0.181 -0.337,0.358 -0.511,0.532c-5.78,5.805 -12.429,6.388 -20.214,6.504c-3.558,0.053 -7.12,0.02 -10.678,0.019l-25.444,0.001l-8.286,-0.002c-4.078,-0.007 -8.324,0.023 -12.307,-0.957c-0.227,-0.055 -0.454,-0.113 -0.679,-0.175c-0.226,-0.062 -0.451,-0.128 -0.674,-0.198c-0.223,-0.069 -0.446,-0.143 -0.667,-0.22c-0.221,-0.077 -0.44,-0.157 -0.659,-0.242c-0.218,-0.084 -0.435,-0.172 -0.65,-0.264c-0.215,-0.091 -0.429,-0.187 -0.641,-0.285c-0.212,-0.099 -0.423,-0.201 -0.632,-0.307c-0.208,-0.106 -0.415,-0.215 -0.62,-0.328c-0.206,-0.112 -0.409,-0.228 -0.61,-0.348c-0.201,-0.119 -0.4,-0.242 -0.598,-0.368c-0.197,-0.126 -0.392,-0.255 -0.585,-0.388c-0.192,-0.132 -0.383,-0.268 -0.571,-0.407c-0.188,-0.139 -0.374,-0.281 -0.558,-0.426c-0.184,-0.145 -0.365,-0.294 -0.543,-0.445c-0.179,-0.151 -0.355,-0.305 -0.528,-0.462c-0.174,-0.157 -0.345,-0.317 -0.513,-0.48c-5.985,-5.859 -6.672,-12.658 -6.748,-20.627l-0.07,-32.071c-0.028,-4.076 -0.011,-8.151 0.051,-12.227c0.047,-4.05 -0.001,-8.185 0.945,-12.148c0.055,-0.233 0.113,-0.465 0.176,-0.695c0.062,-0.231 0.129,-0.461 0.199,-0.689c0.071,-0.229 0.145,-0.456 0.223,-0.682c0.078,-0.226 0.16,-0.45 0.246,-0.674c0.086,-0.223 0.176,-0.444 0.269,-0.665c0.094,-0.22 0.191,-0.438 0.292,-0.655c0.101,-0.216 0.205,-0.431 0.313,-0.645c0.109,-0.213 0.22,-0.424 0.336,-0.634c0.115,-0.209 0.234,-0.416 0.357,-0.622c0.122,-0.205 0.248,-0.408 0.378,-0.609c0.129,-0.201 0.262,-0.4 0.399,-0.596c0.136,-0.197 0.275,-0.391 0.418,-0.583c0.143,-0.191 0.289,-0.38 0.439,-0.567c0.149,-0.187 0.302,-0.371 0.457,-0.552c0.156,-0.182 0.315,-0.361 0.477,-0.537c0.161,-0.176 0.326,-0.349 0.494,-0.519c6.016,-6.112 13.231,-6.602 21.357,-6.628l9.594,-0.031Z"/></svg>