<?xml version="1.0" encoding="UTF-8" standalone="no"?><!DOCTYPE svg PUBLIC "-//W3C//DTD SVG 1.1//EN" "http://www.w3.org/Graphics/SVG/1.1/DTD/svg11.dtd"><svg width="100%" height="100%" viewBox="0 0 100 100" version="1.1" xmlns="http://www.w3.org/2000/svg" xmlns:xlink="http://www.w3.org/1999/xlink" xml:space="preserve" xmlns:serif="http://www.serif.com/" style="fill-rule:evenodd;clip-rule:evenodd;stroke-linejoin:round;stroke-miterlimit:2;"><path d="M0.015,62.884c0,-0 -0.001,-31.544 -0,-32.757c-0.005,-2.088 0.001,-4.175 0.02,-6.263c0.119,-7.278 0.38,-13.107 5.999,-18.486c1.712,-1.638 4.041,-3.195 6.281,-3.956c4.851,-1.647 11.503,-1.372 16.642,-1.375c3.032,-0.002 6.07,-0.047 9.101,0.009c8.671,-0.116 17.36,-0.016 26.032,-0.017l9.675,0.002c4.191,0.009 8.494,-0.082 12.59,0.945c2.754,0.69 5.623,2.431 7.652,4.412c5.276,5.151 5.869,10.302 5.941,17.321c0.028,3.983 0.035,7.966 0.02,11.95c-0.001,2.072 0.097,4.403 -0.019,6.442c0.122,1.922 0.011,3.907 0.013,5.837l0.002,12.205l0.002,12.328c-0.002,4.723 0.058,9.457 -0.801,14.121c-0.284,1.098 -0.581,2.187 -1.043,3.227c-1.528,3.439 -4.411,6.542 -7.649,8.441c-2.413,1.415 -5.023,2.101 -7.789,2.372c-5.428,0.482 -10.913,0.338 -16.358,0.338l-23.179,-0l-15.407,-0.003c-2.121,0.011 -4.242,-0.018 -6.362,-0.086c-1.071,-0.034 -2.204,-0.032 -3.263,-0.196c-1.807,-0.094 -3.721,-0.411 -5.438,-0.986c-4.634,-1.551 -8.461,-5.18 -10.62,-9.516c-0.469,-0.91 -0.772,-1.895 -1.076,-2.869c-1.02,-4.478 -0.961,-9.128 -0.964,-13.699l-0.002,-9.741Z" style="fill:#080605;"/></svg>